<svg xmlns="http://www.w3.org/2000/svg" version="1.1" xmlns:xlink="http://www.w3.org/1999/xlink" xmlns:svgjs="http://svgjs.dev/svgjs" width="1440" height="560" preserveAspectRatio="none" viewBox="0 0 1440 560"><g mask="url(&quot;#SvgjsMask4265&quot;)" fill="none"><rect width="1440" height="560" x="0" y="0" fill="url(&quot;#SvgjsLinearGradient4266&quot;)"></rect><g mask="url(&quot;#SvgjsMask4267&quot;)"><path d="M204 300L228 300L252 300L276 300M180 300L204 276M-12 276L12 276L36 276L60 276L84 276L108 276L132 276L156 276L180 300L204 300L228 324L252 324L276 324" stroke="#3a7cc3" stroke-width="4"></path><path d="M270 324 a6 6 0 1 0 12 0 a6 6 0 1 0 -12 0zM270 300 a6 6 0 1 0 12 0 a6 6 0 1 0 -12 0zM198 276 a6 6 0 1 0 12 0 a6 6 0 1 0 -12 0z" fill="#3a7cc3"></path><path d="M348 348L372 324L396 324M468 324L492 300L516 300L540 276L564 276M588 300L612 276L636 276M708 300L732 276L756 276L780 276L804 300L828 300L852 300L876 300L900 300L924 300M180 324L204 348L228 372L252 372L276 372M516 324L540 324L564 324L588 324L612 324L636 324M300 348L324 324L348 300L372 300M444 324L468 300L492 276L516 276M-12 300L12 300L36 300L60 300L84 300L108 300L132 300L156 300L180 324L204 324L228 348L252 348L276 348L300 348L324 348L348 348L372 348L396 348L420 348L444 324L468 324L492 324L516 324L540 300L564 300L588 300L612 300L636 300L660 300L684 300L708 300L732 300L756 300" stroke="#dd1133" stroke-width="4"></path><path d="M750 300 a6 6 0 1 0 12 0 a6 6 0 1 0 -12 0zM390 324 a6 6 0 1 0 12 0 a6 6 0 1 0 -12 0zM558 276 a6 6 0 1 0 12 0 a6 6 0 1 0 -12 0zM630 276 a6 6 0 1 0 12 0 a6 6 0 1 0 -12 0zM918 300 a6 6 0 1 0 12 0 a6 6 0 1 0 -12 0zM270 372 a6 6 0 1 0 12 0 a6 6 0 1 0 -12 0zM630 324 a6 6 0 1 0 12 0 a6 6 0 1 0 -12 0zM366 300 a6 6 0 1 0 12 0 a6 6 0 1 0 -12 0zM510 276 a6 6 0 1 0 12 0 a6 6 0 1 0 -12 0z" fill="#dd1133"></path><path d="M132 228L156 252L180 252L204 252L228 252M108 252L132 252M-12 252L12 252L36 252L60 252L84 252L108 252L132 228L156 228L180 228" stroke="#dd1133" stroke-width="4"></path><path d="M174 228 a6 6 0 1 0 12 0 a6 6 0 1 0 -12 0zM222 252 a6 6 0 1 0 12 0 a6 6 0 1 0 -12 0zM126 252 a6 6 0 1 0 12 0 a6 6 0 1 0 -12 0z" fill="#dd1133"></path><path d="M-12 324L12 324L36 324L60 324L84 324L108 324L132 324L156 324" stroke="#3a7cc3" stroke-width="4"></path><path d="M150 324 a6 6 0 1 0 12 0 a6 6 0 1 0 -12 0z" fill="#3a7cc3"></path><path d="M324 204L348 180L372 180L396 180M492 180L516 180L540 180L564 180M612 180L636 156L660 156L684 156M588 180L612 204L636 204L660 204L684 204L708 204L732 204M372 204L396 228L420 228L444 228L468 228M516 204L540 228M300 180L324 180M228 180L252 204M-12 228L12 228L36 228L60 228L84 228L108 228L132 204L156 204L180 180L204 180L228 180L252 180L276 180L300 180L324 204L348 204L372 204L396 204L420 204L444 204L468 180L492 180L516 204L540 204L564 204L588 180L612 180L636 180L660 180L684 180L708 180L732 180" stroke="#dd1133" stroke-width="4"></path><path d="M726 180 a6 6 0 1 0 12 0 a6 6 0 1 0 -12 0zM390 180 a6 6 0 1 0 12 0 a6 6 0 1 0 -12 0zM558 180 a6 6 0 1 0 12 0 a6 6 0 1 0 -12 0zM678 156 a6 6 0 1 0 12 0 a6 6 0 1 0 -12 0zM726 204 a6 6 0 1 0 12 0 a6 6 0 1 0 -12 0zM462 228 a6 6 0 1 0 12 0 a6 6 0 1 0 -12 0zM534 228 a6 6 0 1 0 12 0 a6 6 0 1 0 -12 0zM318 180 a6 6 0 1 0 12 0 a6 6 0 1 0 -12 0zM246 204 a6 6 0 1 0 12 0 a6 6 0 1 0 -12 0z" fill="#dd1133"></path><path d="M156 372L180 348M132 348L156 348M-12 348L12 348L36 348L60 348L84 348L108 348L132 348L156 372L180 372" stroke="#dd1133" stroke-width="4"></path><path d="M174 372 a6 6 0 1 0 12 0 a6 6 0 1 0 -12 0zM174 348 a6 6 0 1 0 12 0 a6 6 0 1 0 -12 0zM150 348 a6 6 0 1 0 12 0 a6 6 0 1 0 -12 0z" fill="#dd1133"></path><path d="M540 132L564 156L588 156L612 156L636 132L660 132L684 132L708 132M420 156L444 156M564 132L588 108M516 132L540 156M468 132L492 156L516 156M-12 204L12 204L36 204L60 204L84 204L108 204L132 180L156 180L180 156L204 156L228 156L252 156L276 156L300 156L324 156L348 156L372 156L396 156L420 156L444 132L468 132L492 132L516 132L540 132L564 132L588 132L612 108L636 108L660 108L684 108L708 108" stroke="#3a7cc3" stroke-width="4"></path><path d="M702 108 a6 6 0 1 0 12 0 a6 6 0 1 0 -12 0zM702 132 a6 6 0 1 0 12 0 a6 6 0 1 0 -12 0zM438 156 a6 6 0 1 0 12 0 a6 6 0 1 0 -12 0zM582 108 a6 6 0 1 0 12 0 a6 6 0 1 0 -12 0zM534 156 a6 6 0 1 0 12 0 a6 6 0 1 0 -12 0zM510 156 a6 6 0 1 0 12 0 a6 6 0 1 0 -12 0z" fill="#3a7cc3"></path><path d="M300 372L324 396L348 396L372 396L396 396M708 324L732 348L756 348L780 348L804 372L828 372L852 372L876 372M276 396L300 396L324 420M588 372L612 396L636 396M612 372L636 372L660 372L684 372L708 372L732 372L756 372L780 372L804 396L828 396L852 396L876 396M540 372L564 348L588 348L612 348M180 396L204 420L228 420L252 420L276 420M108 372L132 396L156 420L180 444L204 444L228 444L252 444L276 444L300 444L324 468L348 468L372 468M-12 372L12 372L36 372L60 372L84 372L108 372L132 372L156 396L180 396L204 396L228 396L252 396L276 396L300 372L324 372L348 372L372 372L396 372L420 372L444 372L468 372L492 372L516 372L540 372L564 372L588 372L612 372L636 348L660 348L684 324L708 324L732 324L756 324L780 324" stroke="#3a7cc3" stroke-width="4"></path><path d="M774 324 a6 6 0 1 0 12 0 a6 6 0 1 0 -12 0zM390 396 a6 6 0 1 0 12 0 a6 6 0 1 0 -12 0zM870 372 a6 6 0 1 0 12 0 a6 6 0 1 0 -12 0zM318 420 a6 6 0 1 0 12 0 a6 6 0 1 0 -12 0zM630 396 a6 6 0 1 0 12 0 a6 6 0 1 0 -12 0zM870 396 a6 6 0 1 0 12 0 a6 6 0 1 0 -12 0zM606 348 a6 6 0 1 0 12 0 a6 6 0 1 0 -12 0zM270 420 a6 6 0 1 0 12 0 a6 6 0 1 0 -12 0zM366 468 a6 6 0 1 0 12 0 a6 6 0 1 0 -12 0z" fill="#3a7cc3"></path><path d="M36 180L60 156L84 156M-12 180L12 180L36 180L60 180L84 180L108 180L132 156L156 156L180 132L204 132L228 132L252 132L276 132L300 132L324 132L348 132L372 132L396 132L420 132L444 108L468 108L492 108L516 108L540 108" stroke="#dd1133" stroke-width="4"></path><path d="M534 108 a6 6 0 1 0 12 0 a6 6 0 1 0 -12 0zM78 156 a6 6 0 1 0 12 0 a6 6 0 1 0 -12 0z" fill="#dd1133"></path><path d="M108 444L132 444L156 444M180 468L204 492L228 492L252 516L276 516L300 516L324 516L348 516L372 516L396 516M492 492L516 516L540 516M228 468L252 468L276 468L300 468M444 492L468 516L492 516M156 468L180 492L204 516L228 516M-12 396L12 396L36 396L60 420L84 444L108 444L132 468L156 468L180 468L204 468L228 468L252 492L276 492L300 492L324 492L348 492L372 492L396 492L420 492L444 492L468 492L492 492L516 492L540 468L564 468" stroke="#dd1133" stroke-width="4"></path><path d="M558 468 a6 6 0 1 0 12 0 a6 6 0 1 0 -12 0zM150 444 a6 6 0 1 0 12 0 a6 6 0 1 0 -12 0zM390 516 a6 6 0 1 0 12 0 a6 6 0 1 0 -12 0zM534 516 a6 6 0 1 0 12 0 a6 6 0 1 0 -12 0zM294 468 a6 6 0 1 0 12 0 a6 6 0 1 0 -12 0zM486 516 a6 6 0 1 0 12 0 a6 6 0 1 0 -12 0zM222 516 a6 6 0 1 0 12 0 a6 6 0 1 0 -12 0z" fill="#dd1133"></path><path d="M636 84L660 60L684 60L708 60L732 60L756 60L780 60L804 60M468 84L492 60L516 60L540 60L564 60L588 60L612 60M300 108L324 84L348 84L372 84L396 84L420 60L444 60L468 60M852 60L876 84L900 84L924 108M804 84L828 84L852 84L876 108L900 108L924 132L948 132L972 132L996 132L1020 132L1044 132L1068 132M924 84L948 84L972 84L996 84L1020 84L1044 84L1068 84M780 84L804 108L828 108L852 108L876 132L900 132L924 156L948 156L972 156L996 156L1020 156L1044 156L1068 156M108 132L132 108L156 108L180 84L204 84L228 84L252 84L276 84L300 84M732 84L756 108L780 108L804 132M12 156L36 156M900 60L924 60L948 60L972 60L996 60L1020 60L1044 60L1068 60M-12 156L12 156L36 132L60 132L84 132L108 132L132 132L156 132L180 108L204 108L228 108L252 108L276 108L300 108L324 108L348 108L372 108L396 108L420 108L444 84L468 84L492 84L516 84L540 84L564 84L588 84L612 84L636 84L660 84L684 84L708 84L732 84L756 84L780 84L804 84L828 60L852 60L876 60L900 60L924 84L948 108L972 108L996 108L1020 108L1044 108" stroke="#3a7cc3" stroke-width="4"></path><path d="M1038 108 a6 6 0 1 0 12 0 a6 6 0 1 0 -12 0zM798 60 a6 6 0 1 0 12 0 a6 6 0 1 0 -12 0zM606 60 a6 6 0 1 0 12 0 a6 6 0 1 0 -12 0zM462 60 a6 6 0 1 0 12 0 a6 6 0 1 0 -12 0zM918 108 a6 6 0 1 0 12 0 a6 6 0 1 0 -12 0zM1062 132 a6 6 0 1 0 12 0 a6 6 0 1 0 -12 0zM1062 84 a6 6 0 1 0 12 0 a6 6 0 1 0 -12 0zM1062 156 a6 6 0 1 0 12 0 a6 6 0 1 0 -12 0zM294 84 a6 6 0 1 0 12 0 a6 6 0 1 0 -12 0zM798 132 a6 6 0 1 0 12 0 a6 6 0 1 0 -12 0zM30 156 a6 6 0 1 0 12 0 a6 6 0 1 0 -12 0zM1062 60 a6 6 0 1 0 12 0 a6 6 0 1 0 -12 0z" fill="#3a7cc3"></path></g></g><defs><mask id="SvgjsMask4265"><rect width="1440" height="560" fill="#ffffff"></rect></mask><linearGradient x1="15.28%" y1="-39.29%" x2="84.72%" y2="139.29%" gradientUnits="userSpaceOnUse" id="SvgjsLinearGradient4266"><stop stop-color="#0e2a47" offset="0"></stop><stop stop-color="rgba(14, 22, 61, 1)" offset="1"></stop></linearGradient><mask id="SvgjsMask4267"><rect width="1440" height="560" fill="white"></rect><path d="M273 324 a3 3 0 1 0 6 0 a3 3 0 1 0 -6 0zM273 300 a3 3 0 1 0 6 0 a3 3 0 1 0 -6 0zM201 276 a3 3 0 1 0 6 0 a3 3 0 1 0 -6 0z" fill="black"></path><path d="M753 300 a3 3 0 1 0 6 0 a3 3 0 1 0 -6 0zM393 324 a3 3 0 1 0 6 0 a3 3 0 1 0 -6 0zM561 276 a3 3 0 1 0 6 0 a3 3 0 1 0 -6 0zM633 276 a3 3 0 1 0 6 0 a3 3 0 1 0 -6 0zM921 300 a3 3 0 1 0 6 0 a3 3 0 1 0 -6 0zM273 372 a3 3 0 1 0 6 0 a3 3 0 1 0 -6 0zM633 324 a3 3 0 1 0 6 0 a3 3 0 1 0 -6 0zM369 300 a3 3 0 1 0 6 0 a3 3 0 1 0 -6 0zM513 276 a3 3 0 1 0 6 0 a3 3 0 1 0 -6 0z" fill="black"></path><path d="M177 228 a3 3 0 1 0 6 0 a3 3 0 1 0 -6 0zM225 252 a3 3 0 1 0 6 0 a3 3 0 1 0 -6 0zM129 252 a3 3 0 1 0 6 0 a3 3 0 1 0 -6 0z" fill="black"></path><path d="M153 324 a3 3 0 1 0 6 0 a3 3 0 1 0 -6 0z" fill="black"></path><path d="M729 180 a3 3 0 1 0 6 0 a3 3 0 1 0 -6 0zM393 180 a3 3 0 1 0 6 0 a3 3 0 1 0 -6 0zM561 180 a3 3 0 1 0 6 0 a3 3 0 1 0 -6 0zM681 156 a3 3 0 1 0 6 0 a3 3 0 1 0 -6 0zM729 204 a3 3 0 1 0 6 0 a3 3 0 1 0 -6 0zM465 228 a3 3 0 1 0 6 0 a3 3 0 1 0 -6 0zM537 228 a3 3 0 1 0 6 0 a3 3 0 1 0 -6 0zM321 180 a3 3 0 1 0 6 0 a3 3 0 1 0 -6 0zM249 204 a3 3 0 1 0 6 0 a3 3 0 1 0 -6 0z" fill="black"></path><path d="M177 372 a3 3 0 1 0 6 0 a3 3 0 1 0 -6 0zM177 348 a3 3 0 1 0 6 0 a3 3 0 1 0 -6 0zM153 348 a3 3 0 1 0 6 0 a3 3 0 1 0 -6 0z" fill="black"></path><path d="M705 108 a3 3 0 1 0 6 0 a3 3 0 1 0 -6 0zM705 132 a3 3 0 1 0 6 0 a3 3 0 1 0 -6 0zM441 156 a3 3 0 1 0 6 0 a3 3 0 1 0 -6 0zM585 108 a3 3 0 1 0 6 0 a3 3 0 1 0 -6 0zM537 156 a3 3 0 1 0 6 0 a3 3 0 1 0 -6 0zM513 156 a3 3 0 1 0 6 0 a3 3 0 1 0 -6 0z" fill="black"></path><path d="M777 324 a3 3 0 1 0 6 0 a3 3 0 1 0 -6 0zM393 396 a3 3 0 1 0 6 0 a3 3 0 1 0 -6 0zM873 372 a3 3 0 1 0 6 0 a3 3 0 1 0 -6 0zM321 420 a3 3 0 1 0 6 0 a3 3 0 1 0 -6 0zM633 396 a3 3 0 1 0 6 0 a3 3 0 1 0 -6 0zM873 396 a3 3 0 1 0 6 0 a3 3 0 1 0 -6 0zM609 348 a3 3 0 1 0 6 0 a3 3 0 1 0 -6 0zM273 420 a3 3 0 1 0 6 0 a3 3 0 1 0 -6 0zM369 468 a3 3 0 1 0 6 0 a3 3 0 1 0 -6 0z" fill="black"></path><path d="M537 108 a3 3 0 1 0 6 0 a3 3 0 1 0 -6 0zM81 156 a3 3 0 1 0 6 0 a3 3 0 1 0 -6 0z" fill="black"></path><path d="M561 468 a3 3 0 1 0 6 0 a3 3 0 1 0 -6 0zM153 444 a3 3 0 1 0 6 0 a3 3 0 1 0 -6 0zM393 516 a3 3 0 1 0 6 0 a3 3 0 1 0 -6 0zM537 516 a3 3 0 1 0 6 0 a3 3 0 1 0 -6 0zM297 468 a3 3 0 1 0 6 0 a3 3 0 1 0 -6 0zM489 516 a3 3 0 1 0 6 0 a3 3 0 1 0 -6 0zM225 516 a3 3 0 1 0 6 0 a3 3 0 1 0 -6 0z" fill="black"></path><path d="M1041 108 a3 3 0 1 0 6 0 a3 3 0 1 0 -6 0zM801 60 a3 3 0 1 0 6 0 a3 3 0 1 0 -6 0zM609 60 a3 3 0 1 0 6 0 a3 3 0 1 0 -6 0zM465 60 a3 3 0 1 0 6 0 a3 3 0 1 0 -6 0zM921 108 a3 3 0 1 0 6 0 a3 3 0 1 0 -6 0zM1065 132 a3 3 0 1 0 6 0 a3 3 0 1 0 -6 0zM1065 84 a3 3 0 1 0 6 0 a3 3 0 1 0 -6 0zM1065 156 a3 3 0 1 0 6 0 a3 3 0 1 0 -6 0zM297 84 a3 3 0 1 0 6 0 a3 3 0 1 0 -6 0zM801 132 a3 3 0 1 0 6 0 a3 3 0 1 0 -6 0zM33 156 a3 3 0 1 0 6 0 a3 3 0 1 0 -6 0zM1065 60 a3 3 0 1 0 6 0 a3 3 0 1 0 -6 0z" fill="black"></path></mask></defs></svg>